<?xml version="1.0" encoding="UTF-8"?>
<!DOCTYPE svg PUBLIC "-//W3C//DTD SVG 1.1//EN" "http://www.w3.org/Graphics/SVG/1.1/DTD/svg11.dtd"><svg version="1.1" viewBox="0 0 21590 27940" preserveAspectRatio="xMidYMid" fill-rule="evenodd" xmlns="http://www.w3.org/2000/svg" xmlns:xlink="http://www.w3.org/1999/xlink"><g visibility="visible" id="Default"><desc>Master slide</desc></g><g visibility="visible" id="page1"><desc>Slide</desc><g><desc>Group</desc><g><desc>Drawing</desc><g><g style="stroke:none;fill:rgb(0,0,0)"><path d="M 9124,15707 L 9256,15553 9403,15412 9560,15286 9730,15178 9909,15086 10098,15012 10295,14958 10498,14926 10708,14914 10917,14926 11121,14958 11318,15012 11507,15086 11686,15178 11856,15286 12013,15412 12160,15553 12292,15707 12410,15875 12513,16055 12599,16245 12634,16348 12692,16407 12717,16572 12767,16781 12836,16981 12922,17171 13026,17351 13143,17519 13276,17673 13423,17814 13580,17940 13750,18048 13929,18140 14118,18215 14314,18268 14518,18301 14569,18303 14587,18311 14765,18403 14936,18511 15093,18637 15240,18778 15372,18932 15490,19100 15593,19281 15679,19471 15749,19671 15798,19880 15830,20096 15841,20319 15830,20541 15798,20758 15749,20967 15679,21167 15593,21357 15490,21538 15372,21705 15240,21859 15093,22000 14936,22126 14765,22235 14587,22327 14397,22401 14201,22454 14166,22458 14149,22461 14130,22466 14130,22500 13402,22500 13369,22453 13178,22401 12989,22327 12810,22235 12640,22126 12483,22000 12336,21859 12204,21705 12086,21538 12084,21535 12081,21530 12080,21529 12080,21526 12078,21524 12077,21521 11830,21440 11555,21370 11268,21320 10970,21289 10664,21278 10359,21289 10061,21320 9774,21370 9499,21440 9237,21526 9207,21538 9191,21544 9175,21551 9153,21585 9141,21601 9128,21619 8996,21773 8849,21914 8692,22040 8521,22149 8342,22240 8153,22315 8035,22347 8033,22350 7926,22500 7200,22500 7200,22380 7165,22375 7148,22372 7131,22368 6934,22315 6745,22240 6566,22149 6396,22040 6239,21914 6092,21773 5959,21619 5842,21452 5738,21271 5652,21081 5583,20881 5533,20672 5501,20455 5491,20233 5501,20010 5533,19794 5583,19585 5652,19385 5684,19316 5654,19285 5735,19202 5735,19202 5735,19201 5735,19201 5735,19201 5735,19201 5735,19199 5735,19199 5737,19198 5737,19196 5738,19195 5842,19014 5959,18846 6092,18692 6239,18551 6396,18425 6566,18317 6645,18275 6864,18051 7068,18040 7272,18007 7468,17954 7657,17879 7836,17787 8006,17679 8163,17553 8310,17412 8443,17258 8561,17091 8664,16910 8750,16720 8820,16520 8869,16311 8901,16094 8907,15969 9023,15851 9124,15707 Z"/></g><g style="stroke:rgb(0,0,0);fill:none"><path style="fill:none" d="M 9124,15707 L 9256,15553 9403,15412 9560,15286 9730,15178 9909,15086 10098,15012 10295,14958 10498,14926 10708,14914 10917,14926 11121,14958 11318,15012 11507,15086 11686,15178 11856,15286 12013,15412 12160,15553 12292,15707 12410,15875 12513,16055 12599,16245 12634,16348 12692,16407 12717,16572 12767,16781 12836,16981 12922,17171 13026,17351 13143,17519 13276,17673 13423,17814 13580,17940 13750,18048 13929,18140 14118,18215 14314,18268 14518,18301 14569,18303 14587,18311 14765,18403 14936,18511 15093,18637 15240,18778 15372,18932 15490,19100 15593,19281 15679,19471 15749,19671 15798,19880 15830,20096 15841,20319 15830,20541 15798,20758 15749,20967 15679,21167 15593,21357 15490,21538 15372,21705 15240,21859 15093,22000 14936,22126 14765,22235 14587,22327 14397,22401 14201,22454 14166,22458 14149,22461 14130,22466 14130,22500 13402,22500 13369,22453 13178,22401 12989,22327 12810,22235 12640,22126 12483,22000 12336,21859 12204,21705 12086,21538 12084,21535 12081,21530 12080,21529 12080,21526 12078,21524 12077,21521 11830,21440 11555,21370 11268,21320 10970,21289 10664,21278 10359,21289 10061,21320 9774,21370 9499,21440 9237,21526 9207,21538 9191,21544 9175,21551 9153,21585 9141,21601 9128,21619 8996,21773 8849,21914 8692,22040 8521,22149 8342,22240 8153,22315 8035,22347 8033,22350 7926,22500 7200,22500 7200,22380 7165,22375 7148,22372 7131,22368 6934,22315 6745,22240 6566,22149 6396,22040 6239,21914 6092,21773 5959,21619 5842,21452 5738,21271 5652,21081 5583,20881 5533,20672 5501,20455 5491,20233 5501,20010 5533,19794 5583,19585 5652,19385 5684,19316 5654,19285 5735,19202 5735,19201 5735,19199 5737,19198 5737,19196 5738,19195 5842,19014 5959,18846 6092,18692 6239,18551 6396,18425 6566,18317 6645,18275 6864,18051 7068,18040 7272,18007 7468,17954 7657,17879 7836,17787 8006,17679 8163,17553 8310,17412 8443,17258 8561,17091 8664,16910 8750,16720 8820,16520 8869,16311 8901,16094 8907,15969 9023,15851 9124,15707"/></g><g/></g></g><g><desc>Drawing</desc><g><g style="stroke:none;fill:rgb(0,0,0)"><path d="M 8953,5410 L 9252,7572 9378,7834 9436,7860 9511,7900 9656,8002 9794,8128 9925,8279 9997,8382 10158,8666 10584,11144 10609,11140 10590,11380 10551,11668 10498,11945 10432,12207 10352,12455 10261,12686 10160,12901 10046,13094 9925,13268 9794,13419 9656,13545 9511,13647 9436,13687 9359,13721 9281,13748 9202,13767 9122,13778 9041,13782 8959,13778 8879,13767 8801,13748 8722,13721 8645,13687 8571,13647 8425,13545 8287,13419 8156,13268 8035,13094 7923,12901 7820,12686 7730,12455 7650,12207 7583,11945 7531,11668 7491,11380 7468,11080 7459,10774 7468,10467 7491,10167 7531,9879 7583,9602 7650,9340 7730,9092 7820,8861 7923,8647 8035,8453 8156,8279 8287,8128 8341,8079 8287,7968 8633,7726 8953,5410 Z"/></g><g style="stroke:rgb(0,0,0);fill:none"><path style="fill:none" d="M 8953,5410 L 9252,7572 9378,7834 9436,7860 9511,7900 9656,8002 9794,8128 9925,8279 9997,8382 10158,8666 10584,11144 10609,11140 10590,11380 10551,11668 10498,11945 10432,12207 10352,12455 10261,12686 10160,12901 10046,13094 9925,13268 9794,13419 9656,13545 9511,13647 9436,13687 9359,13721 9281,13748 9202,13767 9122,13778 9041,13782 8959,13778 8879,13767 8801,13748 8722,13721 8645,13687 8571,13647 8425,13545 8287,13419 8156,13268 8035,13094 7923,12901 7820,12686 7730,12455 7650,12207 7583,11945 7531,11668 7491,11380 7468,11080 7459,10774 7468,10467 7491,10167 7531,9879 7583,9602 7650,9340 7730,9092 7820,8861 7923,8647 8035,8453 8156,8279 8287,8128 8341,8079 8287,7968 8633,7726 8953,5410"/></g><g/></g></g><g><desc>Drawing</desc><g><g style="stroke:none;fill:rgb(0,0,0)"><path d="M 12793,5585 L 12495,7747 12368,8009 12310,8035 12236,8075 12090,8177 11952,8303 11821,8454 11750,8557 11588,8841 11162,11319 11137,11315 11156,11555 11195,11843 11248,12120 11315,12382 11395,12630 11485,12861 11587,13076 11700,13269 11821,13443 11952,13594 12090,13720 12236,13822 12310,13862 12387,13896 12465,13923 12544,13942 12624,13953 12705,13957 12787,13953 12867,13942 12946,13923 13024,13896 13101,13862 13175,13822 13321,13720 13459,13594 13590,13443 13711,13269 13823,13076 13926,12861 14016,12630 14096,12382 14163,12120 14216,11843 14255,11555 14278,11255 14287,10948 14278,10642 14255,10342 14216,10054 14163,9777 14096,9515 14016,9267 13926,9036 13823,8822 13711,8628 13590,8454 13459,8303 13405,8254 13459,8143 13113,7901 12793,5585 Z"/></g><g style="stroke:rgb(0,0,0);fill:none"><path style="fill:none" d="M 12793,5585 L 12495,7747 12368,8009 12310,8035 12236,8075 12090,8177 11952,8303 11821,8454 11750,8557 11588,8841 11162,11319 11137,11315 11156,11555 11195,11843 11248,12120 11315,12382 11395,12630 11485,12861 11587,13076 11700,13269 11821,13443 11952,13594 12090,13720 12236,13822 12310,13862 12387,13896 12465,13923 12544,13942 12624,13953 12705,13957 12787,13953 12867,13942 12946,13923 13024,13896 13101,13862 13175,13822 13321,13720 13459,13594 13590,13443 13711,13269 13823,13076 13926,12861 14016,12630 14096,12382 14163,12120 14216,11843 14255,11555 14278,11255 14287,10948 14278,10642 14255,10342 14216,10054 14163,9777 14096,9515 14016,9267 13926,9036 13823,8822 13711,8628 13590,8454 13459,8303 13405,8254 13459,8143 13113,7901 12793,5585"/></g><g/></g></g><g><desc>Drawing</desc><g><g style="stroke:none;fill:rgb(0,0,0)"><path d="M 7094,16705 L 7027,16733 6959,16755 6889,16770 6818,16779 6669,16781 6517,16757 6361,16712 6204,16644 6045,16557 5887,16450 5730,16322 5574,16177 5423,16015 5277,15836 5136,15642 5004,15433 4879,15210 4764,14974 4662,14733 4576,14491 4506,14251 4451,14017 4412,13785 4388,13563 4380,13348 4385,13142 4387,13128 4374,13102 4324,12983 4281,12854 4240,12713 4177,12402 4137,12056 4122,11688 4137,11321 4177,10975 4240,10664 4281,10523 4324,10394 4374,10275 4426,10170 4484,10078 4544,10001 4574,9970 4590,9955 4608,9939 4641,9915 4657,9906 4665,9900 4673,9894 4689,9887 4698,9882 4707,9878 4716,9875 4724,9873 4733,9870 4739,9867 4743,9866 4761,9863 4769,9862 4778,9860 4787,9860 4796,9860 4800,9860 4804,9859 4809,9859 4813,9857 4816,9857 4820,9857 4822,9857 4823,9857 4825,9859 4826,9859 4817,9912 4812,9940 4806,9968 4782,10151 4769,10343 4769,10544 4778,10750 4797,10963 4830,11180 4873,11395 4925,11601 4988,11798 5056,11986 5057,11991 5107,11975 5177,11960 5249,11951 5396,11949 5549,11973 5705,12018 5863,12086 6022,12173 6181,12282 6338,12408 6493,12553 6643,12715 6790,12894 6930,13088 7064,13297 7187,13520 7302,13756 7404,13997 7490,14239 7560,14479 7615,14713 7654,14945 7678,15167 7686,15382 7680,15588 7659,15783 7622,15965 7570,16133 7504,16284 7423,16419 7328,16534 7275,16585 7218,16631 7158,16671 7094,16705 Z"/></g><g style="stroke:rgb(0,0,0);fill:none"><path style="fill:none" d="M 7094,16705 L 7027,16733 6959,16755 6889,16770 6818,16779 6669,16781 6517,16757 6361,16712 6204,16644 6045,16557 5887,16450 5730,16322 5574,16177 5423,16015 5277,15836 5136,15642 5004,15433 4879,15210 4764,14974 4662,14733 4576,14491 4506,14251 4451,14017 4412,13785 4388,13563 4380,13348 4385,13142 4387,13128 4374,13102 4324,12983 4281,12854 4240,12713 4177,12402 4137,12056 4122,11688 4137,11321 4177,10975 4240,10664 4281,10523 4324,10394 4374,10275 4426,10170 4484,10078 4544,10001 4574,9970 4590,9955 4608,9939 4641,9915 4657,9906 4665,9900 4673,9894 4689,9887 4698,9882 4707,9878 4716,9875 4724,9873 4733,9870 4739,9867 4743,9866 4761,9863 4769,9862 4778,9860 4787,9860 4796,9860 4800,9860 4804,9859 4809,9859 4813,9857 4816,9857 4820,9857 4822,9857 4823,9857 4825,9859 4826,9859 4817,9912 4812,9940 4806,9968 4782,10151 4769,10343 4769,10544 4778,10750 4797,10963 4830,11180 4873,11395 4925,11601 4988,11798 5056,11986 5057,11991 5107,11975 5177,11960 5249,11951 5396,11949 5549,11973 5705,12018 5863,12086 6022,12173 6181,12282 6338,12408 6493,12553 6643,12715 6790,12894 6930,13088 7064,13297 7187,13520 7302,13756 7404,13997 7490,14239 7560,14479 7615,14713 7654,14945 7678,15167 7686,15382 7680,15588 7659,15783 7622,15965 7570,16133 7504,16284 7423,16419 7328,16534 7275,16585 7218,16631 7158,16671 7094,16705"/></g><g/></g></g><g><desc>Drawing</desc><g><g style="stroke:none;fill:rgb(0,0,0)"><path d="M 14466,16708 L 14533,16736 14601,16758 14671,16773 14742,16782 14891,16784 15043,16760 15199,16715 15356,16647 15515,16560 15673,16453 15830,16325 15986,16180 16137,16018 16283,15839 16424,15645 16556,15436 16681,15213 16796,14977 16898,14736 16984,14494 17054,14254 17109,14020 17148,13788 17172,13566 17180,13351 17175,13145 17173,13131 17186,13105 17236,12986 17279,12857 17320,12716 17383,12405 17423,12059 17438,11691 17423,11324 17383,10978 17320,10667 17279,10526 17236,10397 17186,10278 17134,10173 17076,10081 17016,10004 16986,9973 16970,9958 16952,9942 16919,9918 16903,9909 16895,9903 16887,9897 16871,9890 16862,9885 16853,9881 16844,9878 16836,9876 16827,9873 16821,9870 16817,9869 16799,9866 16791,9865 16782,9863 16773,9863 16764,9863 16760,9863 16756,9862 16751,9862 16747,9860 16744,9860 16740,9860 16738,9860 16737,9860 16735,9862 16734,9862 16743,9915 16748,9943 16754,9971 16778,10154 16791,10346 16791,10547 16782,10753 16763,10966 16730,11183 16687,11398 16635,11604 16572,11801 16504,11989 16503,11994 16453,11978 16383,11963 16311,11954 16164,11952 16011,11976 15855,12021 15697,12089 15538,12176 15379,12285 15222,12411 15067,12556 14917,12718 14770,12897 14630,13091 14496,13300 14373,13523 14258,13759 14156,14000 14070,14242 14000,14482 13945,14716 13906,14948 13882,15170 13874,15385 13880,15591 13901,15786 13938,15968 13990,16136 14056,16287 14137,16422 14232,16537 14285,16588 14342,16634 14402,16674 14466,16708 Z"/></g><g style="stroke:rgb(0,0,0);fill:none"><path style="fill:none" d="M 14466,16708 L 14533,16736 14601,16758 14671,16773 14742,16782 14891,16784 15043,16760 15199,16715 15356,16647 15515,16560 15673,16453 15830,16325 15986,16180 16137,16018 16283,15839 16424,15645 16556,15436 16681,15213 16796,14977 16898,14736 16984,14494 17054,14254 17109,14020 17148,13788 17172,13566 17180,13351 17175,13145 17173,13131 17186,13105 17236,12986 17279,12857 17320,12716 17383,12405 17423,12059 17438,11691 17423,11324 17383,10978 17320,10667 17279,10526 17236,10397 17186,10278 17134,10173 17076,10081 17016,10004 16986,9973 16970,9958 16952,9942 16919,9918 16903,9909 16895,9903 16887,9897 16871,9890 16862,9885 16853,9881 16844,9878 16836,9876 16827,9873 16821,9870 16817,9869 16799,9866 16791,9865 16782,9863 16773,9863 16764,9863 16760,9863 16756,9862 16751,9862 16747,9860 16744,9860 16740,9860 16738,9860 16737,9860 16735,9862 16734,9862 16743,9915 16748,9943 16754,9971 16778,10154 16791,10346 16791,10547 16782,10753 16763,10966 16730,11183 16687,11398 16635,11604 16572,11801 16504,11989 16503,11994 16453,11978 16383,11963 16311,11954 16164,11952 16011,11976 15855,12021 15697,12089 15538,12176 15379,12285 15222,12411 15067,12556 14917,12718 14770,12897 14630,13091 14496,13300 14373,13523 14258,13759 14156,14000 14070,14242 14000,14482 13945,14716 13906,14948 13882,15170 13874,15385 13880,15591 13901,15786 13938,15968 13990,16136 14056,16287 14137,16422 14232,16537 14285,16588 14342,16634 14402,16674 14466,16708"/></g><g/></g></g></g></g></svg>